M48
METRIC,LZ,000.000
;FILE_FORMAT=3:3
;TYPE=PLATED
;Layer: PTH_Through
;EasyEDA v6.5.1, 2022-04-23 16:14:00
;1ebaea4ae95649dd8011ffabadda3e85,10
;Gerber Generator version 0.2
;Holesize 1 = 0.301 mm
T01C0.301
;Holesize 2 = 0.400 mm
T02C0.400
;Holesize 3 = 0.800 mm
T03C0.800
;Holesize 4 = 0.889 mm
T04C0.889
;Holesize 5 = 0.914 mm
T05C0.914
;Holesize 6 = 0.915 mm
T06C0.915
;Holesize 7 = 1.000 mm
T07C1.000
%
G05
G90
T01
X066251Y-069299
X052705Y-034671
X088421Y-085725
X047642Y-037991
X077352Y-121338
X068707Y-067691
X062992Y-026035
X075946Y-027813
X076454Y-126619
X078994Y-071501
X073822Y-089081
X062103Y-091890
X058166Y-031750
X064512Y-028635
X078740Y-028702
X021651Y-118767
X040513Y-133731
X034036Y-011557
X041656Y-139065
X042418Y-061214
X034290Y-142748
X013335Y-061468
X030861Y-013081
X027559Y-011303
X037690Y-063172
X048514Y-139065
X050927Y-135001
X050165Y-062484
X050419Y-148082
X044934Y-138430
X046733Y-133587
X036703Y-009906
X043053Y-148717
X076073Y-052959
X084162Y-059845
X069342Y-014732
X067818Y-010414
X076172Y-079881
X047625Y-066802
X055296Y-066172
X065659Y-026670
X073533Y-025400
X061087Y-012446
X061214Y-028194
X069809Y-074684
X087005Y-097135
X084443Y-099697
X059563Y-106426
X050038Y-020447
X057142Y-093025
X037592Y-029591
X035074Y-135893
X036538Y-013776
X075438Y-121920
X019177Y-113538
X013970Y-034290
X054483Y-113538
X013970Y-012700
X019194Y-013851
X030226Y-115951
X035306Y-115189
X035941Y-090932
X044704Y-012192
X056864Y-105697
X044196Y-078740
X046355Y-011557
X052098Y-099779
X041275Y-083820
X050165Y-133731
X043561Y-010414
X041402Y-013081
X034036Y-086360
X034844Y-079969
X044196Y-098171
X025908Y-121666
X036322Y-131572
X038354Y-131572
X054483Y-143764
X045593Y-148082
X014224Y-148082
X069977Y-012319
X072390Y-012319
X038354Y-101981
X024765Y-101981
X024765Y-114300
X020447Y-025527
X023876Y-101092
X073660Y-052324
X083820Y-069215
X010922Y-048260
X074930Y-054483
X079010Y-107315
X087122Y-088138
X092329Y-088138
X094615Y-088138
X043434Y-085979
X033020Y-105410
X046736Y-105410
X020701Y-112649
X020701Y-116332
X014859Y-120650
X085725Y-147320
X067310Y-047477
X064135Y-053856
X064135Y-051221
X076962Y-067691
X060071Y-028956
X058317Y-069194
X061976Y-033020
X077470Y-035814
T02
X062611Y-010541
X063119Y-013335
X032004Y-010795
X082169Y-010160
X051943Y-147320
X058420Y-121793
X037465Y-132969
X060325Y-048260
X065151Y-048260
T03
X064767Y-017907G85X064773Y-017907
X012824Y-017907G85X012830Y-017907
X038605Y-017907G85X038611Y-017907
T04
X030353Y-142240
X030353Y-137160
X032893Y-142240
X033020Y-137160
X035433Y-142240
X035433Y-137160
X037846Y-142240
X037973Y-137160
X040513Y-142240
X040513Y-137160
X043053Y-142240
X043053Y-137160
X045593Y-142240
X045593Y-137160
X048133Y-142240
X048133Y-137160
X050673Y-142240
X050673Y-137160
X053213Y-142240
X053213Y-137160
X055753Y-142240
X055753Y-137160
X058293Y-142240
X058293Y-137160
X060706Y-142240
X060960Y-137160
X063373Y-142240
X063373Y-137160
X065913Y-142240
X065913Y-137160
X068453Y-142240
X068453Y-137160
X070993Y-142240
X070993Y-137160
X073660Y-142240
X073660Y-137160
X076073Y-142240
X076073Y-137160
X078613Y-142240
X078613Y-137160
X042926Y-123444
X045466Y-123444
X048006Y-123444
T05
X069850Y-031877
X067310Y-031877
X072390Y-031877
X074930Y-031877
X085090Y-024257
X082550Y-024257
X077470Y-031877
X080010Y-031877
X082550Y-031877
X085090Y-031877
X080010Y-024257
X077470Y-024257
X074930Y-024257
X072390Y-024257
X069850Y-024257
X067310Y-024257
X017889Y-031624
X015349Y-031624
X020429Y-031624
X022969Y-031624
X033129Y-024004
X030589Y-024004
X025509Y-031624
X028049Y-031624
X030589Y-031624
X033129Y-031624
X028049Y-024004
X025509Y-024004
X022969Y-024004
X020429Y-024004
X017889Y-024004
X015349Y-024004
X041275Y-031750
X038735Y-031750
X043815Y-031750
X046355Y-031750
X056515Y-024130
X053975Y-024130
X048895Y-031750
X051435Y-031750
X053975Y-031750
X056515Y-031750
X051435Y-024130
X048895Y-024130
X046355Y-024130
X043815Y-024130
X041275Y-024130
X038735Y-024130
X048133Y-090297
X045593Y-090297
X050673Y-090297
X053213Y-090297
X063373Y-082677
X060833Y-082677
X055753Y-090297
X058293Y-090297
X060833Y-090297
X063373Y-090297
X058293Y-082677
X055753Y-082677
X053213Y-082677
X050673Y-082677
X048133Y-082677
X045593Y-082677
X091186Y-029019
X091186Y-026479
X006477Y-026479
X006477Y-029019
X065936Y-096393G85X065890Y-096393
X063396Y-096393G85X063350Y-096393
X060856Y-096393G85X060810Y-096393
X058316Y-096393G85X058270Y-096393
X055776Y-096393G85X055730Y-096393
X053236Y-096393G85X053190Y-096393
X050696Y-096393G85X050650Y-096393
X048156Y-096393G85X048110Y-096393
X045616Y-096393G85X045570Y-096393
X067287Y-017907G85X067333Y-017907
X069827Y-017907G85X069873Y-017907
X072367Y-017907G85X072413Y-017907
X074907Y-017907G85X074953Y-017907
X077447Y-017907G85X077493Y-017907
X079987Y-017907G85X080033Y-017907
X082527Y-017907G85X082573Y-017907
X085067Y-017907G85X085113Y-017907
X015344Y-017907G85X015390Y-017907
X017884Y-017907G85X017930Y-017907
X020424Y-017907G85X020470Y-017907
X022964Y-017907G85X023010Y-017907
X025504Y-017907G85X025550Y-017907
X028044Y-017907G85X028090Y-017907
X030584Y-017907G85X030630Y-017907
X033124Y-017907G85X033170Y-017907
X041125Y-017907G85X041171Y-017907
X043665Y-017907G85X043711Y-017907
X046205Y-017907G85X046251Y-017907
X048745Y-017907G85X048791Y-017907
X051285Y-017907G85X051331Y-017907
X053825Y-017907G85X053871Y-017907
X056365Y-017907G85X056411Y-017907
X058905Y-017907G85X058951Y-017907
X079138Y-110525G85X079138Y-110581
X076598Y-110525G85X076598Y-110581
X063898Y-110525G85X063898Y-110581
X061358Y-110525G85X061358Y-110581
X074058Y-110525G85X074058Y-110581
X071518Y-110525G85X071518Y-110581
X066438Y-110525G85X066438Y-110581
X068978Y-110525G85X068978Y-110581
X061358Y-118145G85X061358Y-118201
X063898Y-118145G85X063898Y-118201
X066438Y-118145G85X066438Y-118201
X068978Y-118145G85X068978Y-118201
X071518Y-118145G85X071518Y-118201
X074058Y-118145G85X074058Y-118201
X076598Y-118145G85X076598Y-118201
X079138Y-118145G85X079138Y-118201
X048023Y-110525G85X048023Y-110581
X045483Y-110525G85X045483Y-110581
X032783Y-110525G85X032783Y-110581
X030243Y-110525G85X030243Y-110581
X042943Y-110525G85X042943Y-110581
X040403Y-110525G85X040403Y-110581
X035323Y-110525G85X035323Y-110581
X037863Y-110525G85X037863Y-110581
X030243Y-118145G85X030243Y-118201
X032783Y-118145G85X032783Y-118201
X035323Y-118145G85X035323Y-118201
X037863Y-118145G85X037863Y-118201
X040403Y-118145G85X040403Y-118201
X042943Y-118145G85X042943Y-118201
X045483Y-118145G85X045483Y-118201
X048023Y-118145G85X048023Y-118201
X015350Y-044542G85X015350Y-044486
X017890Y-044542G85X017890Y-044486
X030590Y-044542G85X030590Y-044486
X033130Y-044542G85X033130Y-044486
X020430Y-044542G85X020430Y-044486
X022970Y-044542G85X022970Y-044486
X028050Y-044542G85X028050Y-044486
X025510Y-044542G85X025510Y-044486
X033130Y-036922G85X033130Y-036866
X030590Y-036922G85X030590Y-036866
X028050Y-036922G85X028050Y-036866
X025510Y-036922G85X025510Y-036866
X022970Y-036922G85X022970Y-036866
X020430Y-036922G85X020430Y-036866
X017890Y-036922G85X017890Y-036866
X015350Y-036922G85X015350Y-036866
X038752Y-044542G85X038752Y-044486
X041292Y-044542G85X041292Y-044486
X053992Y-044542G85X053992Y-044486
X056532Y-044542G85X056532Y-044486
X043832Y-044542G85X043832Y-044486
X046372Y-044542G85X046372Y-044486
X051452Y-044542G85X051452Y-044486
X048912Y-044542G85X048912Y-044486
X056532Y-036922G85X056532Y-036866
X053992Y-036922G85X053992Y-036866
X051452Y-036922G85X051452Y-036866
X048912Y-036922G85X048912Y-036866
X046372Y-036922G85X046372Y-036866
X043832Y-036922G85X043832Y-036866
X041292Y-036922G85X041292Y-036866
X038752Y-036922G85X038752Y-036866
X033164Y-057185G85X033164Y-057241
X030624Y-057185G85X030624Y-057241
X017924Y-057185G85X017924Y-057241
X015384Y-057185G85X015384Y-057241
X028084Y-057185G85X028084Y-057241
X025544Y-057185G85X025544Y-057241
X020464Y-057185G85X020464Y-057241
X023004Y-057185G85X023004Y-057241
X015384Y-064805G85X015384Y-064861
X017924Y-064805G85X017924Y-064861
X020464Y-064805G85X020464Y-064861
X023004Y-064805G85X023004Y-064861
X025544Y-064805G85X025544Y-064861
X028084Y-064805G85X028084Y-064861
X030624Y-064805G85X030624Y-064861
X033164Y-064805G85X033164Y-064861
X056566Y-057185G85X056566Y-057241
X054026Y-057185G85X054026Y-057241
X041326Y-057185G85X041326Y-057241
X038786Y-057185G85X038786Y-057241
X051486Y-057185G85X051486Y-057241
X048946Y-057185G85X048946Y-057241
X043866Y-057185G85X043866Y-057241
X046406Y-057185G85X046406Y-057241
X038786Y-064805G85X038786Y-064861
X041326Y-064805G85X041326Y-064861
X043866Y-064805G85X043866Y-064861
X046406Y-064805G85X046406Y-064861
X048946Y-064805G85X048946Y-064861
X051486Y-064805G85X051486Y-064861
X054026Y-064805G85X054026Y-064861
X056566Y-064805G85X056566Y-064861
X085124Y-057185G85X085124Y-057241
X082584Y-057185G85X082584Y-057241
X069884Y-057185G85X069884Y-057241
X067344Y-057185G85X067344Y-057241
X080044Y-057185G85X080044Y-057241
X077504Y-057185G85X077504Y-057241
X072424Y-057185G85X072424Y-057241
X074964Y-057185G85X074964Y-057241
X067344Y-064805G85X067344Y-064861
X069884Y-064805G85X069884Y-064861
X072424Y-064805G85X072424Y-064861
X074964Y-064805G85X074964Y-064861
X077504Y-064805G85X077504Y-064861
X080044Y-064805G85X080044Y-064861
X082584Y-064805G85X082584Y-064861
X085124Y-064805G85X085124Y-064861
X006604Y-059690
X006604Y-062230
X006477Y-039370
X006477Y-041910
X091152Y-062357
X091152Y-059817
X045593Y-076200
X048133Y-076200
X050673Y-076200
X053213Y-076200
X055753Y-076200
X058293Y-076200
X060833Y-076200
X063373Y-076200
X092837Y-138176
X090297Y-138176
T06
X011684Y-073660
X011684Y-076200
X011684Y-078740
X011684Y-081280
X011684Y-083820
X011684Y-086360
X011684Y-088900
X011684Y-091440
X011684Y-093980
X011684Y-096520
X011684Y-099060
X011684Y-101600
X011684Y-104140
X011684Y-106680
X011684Y-109220
X011684Y-111760
X011684Y-114300
X011684Y-116840
X011684Y-119380
X011684Y-121920
X011684Y-124460
X006604Y-073661
X006604Y-076201
X006604Y-078741
X006604Y-081281
X006604Y-083821
X006604Y-086361
X006604Y-088901
X006604Y-091441
X006604Y-093981
X006604Y-096521
X006604Y-099061
X006604Y-101601
X006604Y-104141
X006604Y-106681
X006604Y-109221
X006604Y-111761
X006604Y-114301
X006604Y-116841
X006604Y-119381
X006604Y-121921
X006604Y-124461
X016764Y-073660
X016764Y-076200
X016764Y-078740
X016764Y-081280
X016764Y-083820
X016764Y-086360
X016764Y-088900
X016764Y-091440
X016764Y-093980
X016764Y-096520
X016764Y-099060
X016764Y-101600
X016764Y-104140
X016764Y-106680
X016764Y-109220
X016764Y-111760
X016764Y-114300
X016764Y-116840
X016764Y-119380
X016764Y-121920
X016764Y-124460
X022225Y-143256
X019685Y-143256
X017145Y-143256
X014605Y-143256
X012065Y-143256
X009525Y-143256
X006985Y-143256
X004445Y-143256
X001905Y-143256
X040386Y-106681
X042926Y-106681
X045466Y-106681
X048006Y-106681
X089789Y-098171
X092329Y-098171
X092329Y-100711
X089789Y-100711
X092329Y-103251
X089789Y-103251
X092329Y-105791
X089789Y-105791
X089789Y-117221
X092329Y-117221
X092329Y-119761
X089789Y-119761
X092329Y-122301
X089789Y-122301
X092329Y-124841
X089789Y-124841
X089789Y-078740
X092329Y-078740
X092329Y-081280
X089789Y-081280
X092329Y-083820
X089789Y-083820
X092329Y-086360
X089789Y-086360
T07
X097790Y-035814
X097790Y-033274
X097790Y-030734
X097790Y-028194
X097790Y-025654
X097790Y-023114
X097790Y-020574
X097790Y-018034
X002413Y-091313
X002413Y-088773
X002413Y-086233
X002413Y-083693
X002413Y-081153
X002413Y-078613
X002413Y-076073
X002413Y-073533
X015333Y-050799
X017873Y-050799
X020413Y-050799
X022953Y-050799
X025493Y-050799
X028033Y-050799
X030573Y-050799
X033113Y-050799
X038718Y-050799
X041258Y-050799
X043798Y-050799
X046338Y-050799
X048878Y-050799
X051418Y-050799
X053958Y-050799
X056498Y-050799
X067310Y-050800
X069850Y-050800
X072390Y-050800
X074930Y-050800
X077470Y-050800
X080010Y-050800
X082550Y-050800
X085090Y-050800
M30
