G04 Layer: BottomLayer*
G04 EasyEDA v6.5.1, 2022-04-23 16:14:00*
G04 1ebaea4ae95649dd8011ffabadda3e85,10*
G04 Gerber Generator version 0.2*
G04 Scale: 100 percent, Rotated: No, Reflected: No *
G04 Dimensions in millimeters *
G04 leading zeros omitted , absolute positions ,4 integer and 5 decimal *
%FSLAX45Y45*%
%MOMM*%

%ADD11C,0.2500*%
%ADD12C,0.4000*%
%ADD13C,0.6100*%
%ADD14C,0.8000*%
%ADD15R,1.3970X8.8900*%
%ADD16C,1.6000*%
%ADD17R,1.6000X1.6000*%
%ADD19C,1.5240*%
%ADD20R,1.8000X1.8000*%
%ADD21C,1.5750*%
%ADD22R,1.5750X1.5750*%
%ADD23C,1.8000*%
%ADD24R,1.5748X1.5748*%
%ADD25C,1.5748*%

%LPD*%
D11*
X8254994Y-3187700D02*
G01*
X7601813Y-3840888D01*
X6482486Y-3840888D01*
X5816600Y-3175002D01*
X6734403Y-5721299D02*
G01*
X6623634Y-5832068D01*
X6623634Y-6607378D01*
X8525255Y-8509000D01*
X9105900Y-8509000D01*
X9232900Y-8636000D01*
D12*
X9118600Y-2933778D02*
G01*
X8890000Y-2705178D01*
X8890000Y-1828878D01*
X8699500Y-1638378D01*
X6667500Y-1638378D01*
X6515100Y-1790778D01*
X6477000Y-1790778D01*
X9118612Y-2679702D02*
G01*
X9115297Y-1749122D01*
X8839454Y-1473278D01*
X7289800Y-1473278D01*
X7150100Y-1333578D01*
X7150100Y-457278D01*
D11*
X8978900Y-10325102D02*
G01*
X8246115Y-11057887D01*
X8246115Y-12188266D01*
X6972294Y-13462081D01*
X6972294Y-14097081D01*
X6845294Y-14224081D01*
X7405877Y-11055174D02*
G01*
X7405877Y-11250500D01*
X7302500Y-11353878D01*
X5448300Y-11353878D01*
X3301994Y-13716081D02*
G01*
X3179831Y-13838250D01*
X3179831Y-14274116D01*
X3548888Y-14643181D01*
X7950194Y-14643181D01*
X9472929Y-13120451D01*
X9472929Y-12275393D01*
X9300463Y-12103181D01*
X9105978Y-12103181D01*
X8978900Y-11976102D01*
X2755900Y-1130378D02*
G01*
X2819400Y-1066878D01*
X3009821Y-1066878D01*
X3086100Y-990600D01*
X3086100Y-457278D01*
X5816600Y-3695778D02*
G01*
X5816600Y-3606624D01*
X5677661Y-3467940D01*
X5270500Y-3467940D01*
X6731000Y-4747592D02*
G01*
X6563868Y-4747592D01*
X5816600Y-4000578D01*
X5816600Y-3695778D01*
X4140200Y-1308102D02*
G01*
X4356094Y-1092207D01*
X4356094Y-1041400D01*
X3058921Y-3162378D02*
G01*
X3171697Y-3275154D01*
X3356102Y-3275154D01*
X3979925Y-2651330D01*
X3979925Y-2186764D01*
X4261865Y-1904570D01*
X4261865Y-1317830D01*
X4610100Y-969850D01*
X4610100Y-929210D01*
X1397000Y-3429078D02*
G01*
X2698750Y-3429078D01*
X2931921Y-3195906D01*
X2931921Y-3065604D01*
X3975100Y-2022426D01*
X3975100Y-1310210D01*
X4356100Y-929210D01*
X6197600Y-3302078D02*
G01*
X6197600Y-2921078D01*
X6451600Y-2667078D01*
X6565900Y-2667078D01*
X6007100Y-2895600D02*
G01*
X6007100Y-3276600D01*
X6502400Y-3771900D01*
X7556500Y-3771900D01*
X7747000Y-3581400D01*
X4378965Y-5079926D02*
G01*
X4531441Y-5232402D01*
X7366000Y-5232402D01*
X9232900Y-10566478D02*
G01*
X9394189Y-10405188D01*
X9394189Y-5457014D01*
X8445754Y-4508578D01*
X6946900Y-4508578D01*
X5784088Y-3345766D01*
X4809743Y-3345766D01*
X4764277Y-3300300D01*
X4764331Y-3313026D02*
G01*
X4764331Y-3145942D01*
X5374289Y-2535986D01*
X5698947Y-2535986D01*
X6222994Y-2011934D01*
X6222994Y-1701800D01*
X6451592Y-1473202D01*
X6934200Y-1473202D01*
X6870700Y-6769102D02*
G01*
X6870702Y-6769100D01*
X7696194Y-6769100D01*
X8913957Y-7986854D01*
X9091681Y-7986854D01*
X9232894Y-8128081D01*
X6413500Y-4927678D02*
G01*
X6413500Y-5122075D01*
X6413500Y-5385600D02*
G01*
X6413500Y-6540578D01*
X8445500Y-8572578D01*
X8842247Y-8572578D01*
X4764277Y-3799156D02*
G01*
X4889500Y-3924378D01*
X5422900Y-3924378D01*
X6413500Y-4914978D01*
X7327900Y-4914978D01*
X7493000Y-5080078D01*
X7239000Y-1231978D02*
G01*
X8915400Y-1231978D01*
X9461500Y-1778078D01*
X9461500Y-8813878D01*
X1533397Y-5079824D02*
G01*
X1625600Y-5079824D01*
X2023871Y-5478096D01*
X3370579Y-5478096D01*
X3899661Y-6007178D01*
X4127245Y-6006924D01*
X4241800Y-6121478D01*
D12*
X1788998Y-3689400D02*
G01*
X1534998Y-3689400D01*
X1538406Y-6483299D02*
G01*
X1024107Y-5969002D01*
X660400Y-5969002D01*
X7242403Y-6483299D02*
G01*
X6988403Y-6483299D01*
X6988403Y-6483299D02*
G01*
X6734403Y-6483299D01*
D11*
X7617203Y-7988094D02*
G01*
X9349488Y-9720374D01*
X9349488Y-10208514D01*
X9232900Y-10325102D01*
D12*
X1168400Y-7366000D02*
G01*
X1676397Y-7366000D01*
X1676400Y-7366002D01*
X7950273Y-14732002D02*
G01*
X8572500Y-14732002D01*
D11*
X241300Y-7353300D02*
G01*
X241300Y-9131300D01*
X660400Y-7366078D02*
G01*
X647621Y-7353300D01*
X241300Y-7353300D01*
X660400Y-8128078D02*
G01*
X596900Y-8128078D01*
X469900Y-8255078D01*
X469900Y-9144078D01*
X596900Y-9271078D01*
X3873500Y-9271078D01*
X4419600Y-9817178D01*
X5529579Y-6617286D02*
G01*
X5831718Y-6919424D01*
X5831718Y-6919424D02*
G01*
X6444995Y-7532702D01*
X6444995Y-7715074D01*
X8939529Y-10209608D01*
X9107170Y-10209608D01*
X660400Y-11176078D02*
G01*
X495300Y-11341178D01*
X495300Y-12649278D01*
X1435354Y-13589332D01*
X3507486Y-13589332D01*
X1676400Y-10668002D02*
G01*
X1844065Y-10835667D01*
X5029677Y-10835667D01*
X5469204Y-11275187D01*
X6931913Y-11275187D01*
X7151806Y-11055299D01*
D12*
X4040301Y-11817301D02*
G01*
X4802301Y-11817301D01*
D11*
X2070100Y-11633200D02*
G01*
X1892300Y-11811000D01*
X1562100Y-11811000D01*
X1485900Y-11887200D01*
X1485900Y-12065000D01*
X3786301Y-11055301D02*
G01*
X3786301Y-11136198D01*
X3657600Y-11264900D01*
X2070100Y-11264900D01*
X1168400Y-12446000D02*
G01*
X1168405Y-12446002D01*
X1676400Y-12446002D01*
X660400Y-12446078D02*
G01*
X1168400Y-12446078D01*
D12*
X3532301Y-11817301D02*
G01*
X3786301Y-11817301D01*
X3532301Y-11817299D02*
G01*
X3278301Y-11817299D01*
D11*
X660400Y-9398081D02*
G01*
X558800Y-9398081D01*
X444500Y-9512381D01*
X444500Y-14325602D01*
X8978900Y-8636000D02*
G01*
X8347379Y-8636000D01*
X6641287Y-6929907D01*
X6625081Y-6929907D01*
X6299194Y-2603500D02*
G01*
X7416797Y-2603500D01*
X7594600Y-2781302D01*
X6845294Y-13716000D02*
G01*
X6845294Y-13462007D01*
X7645400Y-12661902D01*
X6210325Y-9189034D02*
G01*
X7101281Y-9189034D01*
X7382230Y-8908084D01*
X7874000Y-2870202D02*
G01*
X7867342Y-2863545D01*
X6451246Y-2863545D01*
X4051300Y-13373102D02*
G01*
X3661491Y-13373102D01*
X2165073Y-11876681D01*
X3543300Y-13716000D02*
G01*
X3434461Y-13824839D01*
X3434461Y-14274901D01*
X3429000Y-14274802D02*
G01*
X3434367Y-14274802D01*
X3434463Y-14274899D01*
X2046406Y-5721299D02*
G01*
X1620903Y-6146802D01*
X1333500Y-6146802D01*
X3086100Y-457200D02*
G01*
X3086100Y-929259D01*
X2554401Y-5721299D02*
G01*
X3092272Y-6259169D01*
X3710939Y-6259169D01*
X3768979Y-6317208D01*
X3594100Y-457200D02*
G01*
X3594100Y-929259D01*
X4851400Y-13906502D02*
G01*
X4931229Y-13826672D01*
X4931229Y-13661572D01*
X5092694Y-13500100D01*
X4610100Y-457200D02*
G01*
X4610100Y-929259D01*
X3848094Y-929259D02*
G01*
X3786751Y-990602D01*
X3670300Y-990602D01*
X3848100Y-457200D02*
G01*
X3848100Y-929259D01*
X7607300Y-5295902D02*
G01*
X7811366Y-5295902D01*
X8131431Y-5615967D01*
X8131431Y-5826404D01*
X8289498Y-5984466D01*
X8416188Y-5984466D01*
X4125795Y-5079926D02*
G01*
X4341771Y-5295902D01*
X7607300Y-5295902D01*
X4764328Y-3313023D02*
G01*
X3890416Y-3313023D01*
X3875277Y-3297885D01*
X3873500Y-3175002D02*
G01*
X3873500Y-3296102D01*
X3875280Y-3297882D01*
X6896100Y-457200D02*
G01*
X6896100Y-929259D01*
X6388100Y-457200D02*
G01*
X6388100Y-929259D01*
X8978900Y-10325102D02*
G01*
X8884663Y-10325102D01*
X6210294Y-7650734D01*
X6210294Y-7582532D01*
X5307962Y-6680200D01*
X4762494Y-6680200D01*
X9232900Y-10071102D02*
G01*
X9232900Y-10083807D01*
X9107048Y-10209659D01*
X5143500Y-3175002D02*
G01*
X5778502Y-2540000D01*
X7353294Y-2540000D01*
X5148605Y-5721299D02*
G01*
X8120255Y-8692944D01*
X8120255Y-9219082D01*
X8972275Y-10071102D01*
X8978900Y-10071102D01*
X5880094Y-929259D02*
G01*
X5880094Y-1015997D01*
X6108700Y-1244602D01*
X5880100Y-457200D02*
G01*
X5880100Y-929259D01*
X5397500Y-3175002D02*
G01*
X5753102Y-2819400D01*
X6121394Y-2819400D01*
X5402605Y-5721299D02*
G01*
X5402605Y-5890107D01*
X6980859Y-7468362D01*
X9232900Y-9817102D02*
G01*
X9232900Y-9720397D01*
X6980864Y-7468362D01*
X6700398Y-9969705D02*
G01*
X6027501Y-10642602D01*
X5956300Y-10642602D01*
X5714238Y-9302496D02*
G01*
X6422542Y-9302496D01*
X6700393Y-9580346D01*
X6700393Y-9969703D01*
X6700393Y-9969703D02*
G01*
X8444280Y-9969703D01*
X8978900Y-9817102D02*
G01*
X8887838Y-9817102D01*
X8887835Y-9817100D01*
X8700490Y-9713493D02*
G01*
X8784234Y-9713493D01*
X8887840Y-9817100D01*
X5626100Y-457200D02*
G01*
X5626100Y-929259D01*
X5003800Y-2044702D02*
G01*
X5003794Y-2044697D01*
X5003794Y-1551559D01*
X5626094Y-929259D01*
X5143500Y-2413002D02*
G01*
X5143500Y-2031994D01*
X5384794Y-1790700D01*
X7150100Y-457200D02*
G01*
X7150100Y-929259D01*
D12*
X6389801Y-11817299D02*
G01*
X6135801Y-11817299D01*
X3278301Y-11817299D02*
G01*
X3024301Y-11817299D01*
X6643801Y-11817299D02*
G01*
X6389801Y-11817299D01*
X6897801Y-11817299D02*
G01*
X6643801Y-11817299D01*
X7151801Y-11817299D02*
G01*
X6897801Y-11817299D01*
X7405801Y-11817299D02*
G01*
X7151801Y-11817299D01*
X7659801Y-11817299D02*
G01*
X7405801Y-11817299D01*
D11*
X3759194Y-11430000D02*
G01*
X1676402Y-11430000D01*
X1676400Y-11430002D01*
X7913806Y-11430000D02*
G01*
X3759200Y-11430000D01*
X3759200Y-11430002D01*
X5372100Y-457200D02*
G01*
X5372100Y-929259D01*
X3759200Y-2959102D02*
G01*
X3760396Y-2959102D01*
X4256255Y-2463241D01*
X4256255Y-2324199D01*
X4730495Y-1849958D01*
X4730495Y-1570863D01*
X5372094Y-929259D01*
X7913801Y-11055299D02*
G01*
X7913801Y-11430000D01*
X1168400Y-11430002D02*
G01*
X660400Y-11430002D01*
X660400Y-11430000D01*
X4102100Y-929259D02*
G01*
X3653764Y-1377594D01*
X4102100Y-457200D02*
G01*
X4102100Y-929259D01*
X660400Y-11176000D02*
G01*
X1168400Y-11176000D01*
X1168400Y-11176002D01*
X1168400Y-11176000D02*
G01*
X1676397Y-11176000D01*
X1676400Y-11176002D01*
X1168400Y-9906000D02*
G01*
X1676397Y-9906000D01*
X1676400Y-9906002D01*
X660400Y-9906000D02*
G01*
X1168400Y-9906000D01*
X1168400Y-9906002D01*
X6135806Y-11055299D02*
G01*
X5436240Y-11055299D01*
X4490143Y-10109202D01*
X2387600Y-10109202D01*
X1168400Y-9652000D02*
G01*
X1676397Y-9652000D01*
X1676400Y-9652002D01*
X660400Y-9652000D02*
G01*
X1168400Y-9652000D01*
X1168400Y-9652002D01*
X4356100Y-457200D02*
G01*
X4356100Y-929259D01*
X1168400Y-10922000D02*
G01*
X1676397Y-10922000D01*
X1676400Y-10922002D01*
X660400Y-10922000D02*
G01*
X1168400Y-10922000D01*
X1168400Y-10922002D01*
X1168400Y-10668000D02*
G01*
X1676397Y-10668000D01*
X1676400Y-10668002D01*
X660400Y-10668000D02*
G01*
X1168400Y-10668000D01*
X1168400Y-10668002D01*
X6643801Y-11055299D02*
G01*
X6317106Y-10728604D01*
X5247360Y-10728604D01*
X4061079Y-9542322D01*
X608482Y-9542322D01*
X506399Y-9644405D01*
X506399Y-10005999D01*
X660400Y-10160000D01*
X2578094Y-929259D02*
G01*
X2460658Y-1046708D01*
X1620293Y-1046708D01*
X1397000Y-1270002D01*
X2578100Y-457200D02*
G01*
X2578100Y-929259D01*
X1168400Y-10160000D02*
G01*
X1676397Y-10160000D01*
X1676400Y-10160002D01*
X660400Y-10160000D02*
G01*
X1168400Y-10160000D01*
X1168400Y-10160002D01*
X2832100Y-457200D02*
G01*
X2832100Y-929259D01*
X1168400Y-10414000D02*
G01*
X1676397Y-10414000D01*
X1676400Y-10414002D01*
X660400Y-10414000D02*
G01*
X1168400Y-10414000D01*
X1168400Y-10414002D01*
X3278377Y-11055174D02*
G01*
X3099054Y-10875850D01*
X2275077Y-10875850D01*
X1847850Y-11303078D01*
X1651000Y-11303078D01*
X1318513Y-11635564D01*
X1318513Y-11787964D01*
X1168400Y-11938078D01*
X1168400Y-11938002D02*
G01*
X660400Y-11938002D01*
X660400Y-11938000D01*
X3022594Y-11595100D02*
G01*
X2273302Y-11595100D01*
X1676400Y-12192002D01*
X660400Y-12192000D02*
G01*
X1168400Y-12192000D01*
X1168400Y-12192002D01*
X1168400Y-12192000D02*
G01*
X1676397Y-12192000D01*
X1676400Y-12192002D01*
X1168400Y-11684002D02*
G01*
X660400Y-11684002D01*
X660400Y-11684000D01*
X5118100Y-457200D02*
G01*
X5118100Y-929259D01*
X5118094Y-929259D02*
G01*
X4828151Y-1219202D01*
X4470400Y-1219202D01*
X1168400Y-8890000D02*
G01*
X1676397Y-8890000D01*
X1676400Y-8890002D01*
X660400Y-8890000D02*
G01*
X1168400Y-8890000D01*
X1168400Y-8890002D01*
X4864100Y-457200D02*
G01*
X4864100Y-929259D01*
X1168400Y-7874000D02*
G01*
X1676397Y-7874000D01*
X1676400Y-7874002D01*
X660400Y-7874000D02*
G01*
X1168400Y-7874000D01*
X1168400Y-7874002D01*
X1676400Y-8382002D02*
G01*
X4127492Y-8382002D01*
X4127494Y-8382000D01*
X1168400Y-8382000D02*
G01*
X1676397Y-8382000D01*
X1676400Y-8382002D01*
X5016500Y-13373102D02*
G01*
X4813294Y-13576307D01*
X4813294Y-13716000D01*
X660400Y-8382000D02*
G01*
X1168400Y-8382000D01*
X1168400Y-8382002D01*
X1676400Y-8636002D02*
G01*
X3403592Y-8636002D01*
X3403594Y-8636000D01*
X1168400Y-8636000D02*
G01*
X1676397Y-8636000D01*
X1676400Y-8636002D01*
X660400Y-8636000D02*
G01*
X1168400Y-8636000D01*
X1168400Y-8636002D01*
X1676400Y-8128002D02*
G01*
X3353274Y-8128002D01*
X3484397Y-7996882D01*
X1168400Y-8128000D02*
G01*
X1676397Y-8128000D01*
X1676400Y-8128002D01*
X660400Y-8128000D02*
G01*
X1168400Y-8128000D01*
X1168400Y-8128002D01*
X1168400Y-7620000D02*
G01*
X1676397Y-7620000D01*
X1676400Y-7620002D01*
X660400Y-7620000D02*
G01*
X1168400Y-7620000D01*
X1168400Y-7620002D01*
D12*
X3312998Y-3689400D02*
G01*
X3317951Y-3694353D01*
X3870248Y-3694353D01*
X3875201Y-3689400D01*
X5399201Y-3689400D02*
G01*
X5653201Y-3689400D01*
X5145201Y-3689400D02*
G01*
X5399201Y-3689400D01*
X4891201Y-3689400D02*
G01*
X5145201Y-3689400D01*
X4383201Y-3689400D02*
G01*
X4637201Y-3689400D01*
X4129201Y-3689400D02*
G01*
X4383201Y-3689400D01*
X3875201Y-3689400D02*
G01*
X4129201Y-3689400D01*
X3058998Y-3689400D02*
G01*
X3312998Y-3689400D01*
X2804998Y-3689400D02*
G01*
X3058998Y-3689400D01*
X2550998Y-3689400D02*
G01*
X2804998Y-3689400D01*
X2296998Y-3689400D02*
G01*
X2550998Y-3689400D01*
X2042998Y-3689400D02*
G01*
X2296998Y-3689400D01*
X1788998Y-3689400D02*
G01*
X2042998Y-3689400D01*
X1792401Y-6483299D02*
G01*
X1538401Y-6483299D01*
X4132605Y-6483299D02*
G01*
X3878605Y-6483299D01*
X4386605Y-6483299D02*
G01*
X4132605Y-6483299D01*
X4640605Y-6483299D02*
G01*
X4386605Y-6483299D01*
X4894605Y-6483299D02*
G01*
X4640605Y-6483299D01*
X5148605Y-6483299D02*
G01*
X4894605Y-6483299D01*
X5402605Y-6483299D02*
G01*
X5148605Y-6483299D01*
X5656605Y-6483299D02*
G01*
X5402605Y-6483299D01*
X3316401Y-6483299D02*
G01*
X3878605Y-6483299D01*
X3062401Y-6483299D02*
G01*
X3316401Y-6483299D01*
X2046401Y-6483299D02*
G01*
X1792401Y-6483299D01*
X2300401Y-6483299D02*
G01*
X2046401Y-6483299D01*
X2554401Y-6483299D02*
G01*
X2300401Y-6483299D01*
X2808401Y-6483299D02*
G01*
X2554401Y-6483299D01*
X3062401Y-6483299D02*
G01*
X2808401Y-6483299D01*
X8512403Y-6483299D02*
G01*
X8867597Y-6483299D01*
X9115196Y-6235700D01*
X8258403Y-6483299D02*
G01*
X8512403Y-6483299D01*
X7496403Y-6483299D02*
G01*
X7242403Y-6483299D01*
X7750403Y-6483299D02*
G01*
X7496403Y-6483299D01*
X8004403Y-6483299D02*
G01*
X7750403Y-6483299D01*
X8258403Y-6483299D02*
G01*
X8004403Y-6483299D01*
D11*
X1168400Y-9144000D02*
G01*
X1676397Y-9144000D01*
X1676400Y-9144002D01*
X660400Y-9144000D02*
G01*
X1168400Y-9144000D01*
X1168400Y-9144002D01*
X1168400Y-9398000D02*
G01*
X1676397Y-9398000D01*
X1676400Y-9398002D01*
X660400Y-9398000D02*
G01*
X1168400Y-9398000D01*
X1168400Y-9398002D01*
X1676400Y-11684002D02*
G01*
X1841502Y-11518900D01*
X3530594Y-11518900D01*
X2590800Y-12166602D02*
G01*
X3581397Y-13157200D01*
X3632194Y-13157200D01*
X4559294Y-13716000D02*
G01*
X4762494Y-13512800D01*
X4762494Y-13258800D01*
X4660897Y-13157202D01*
X3835400Y-13157202D01*
X9232900Y-11722102D02*
G01*
X9522736Y-12011939D01*
X9522736Y-13896063D01*
X8610594Y-14808200D01*
X5041894Y-14808200D01*
X8978900Y-12484102D02*
G01*
X8978900Y-13360476D01*
X7899394Y-14439981D01*
X4495794Y-14439981D01*
X4432294Y-14376481D01*
X4432294Y-14058981D01*
X4089394Y-13716081D01*
X4051294Y-13716081D01*
X4165600Y-13906502D02*
G01*
X3924292Y-13906502D01*
X3784594Y-14046200D01*
X3784594Y-14224000D01*
X4559294Y-14808200D02*
G01*
X1422402Y-14808200D01*
X1422400Y-14808202D01*
X4813294Y-14224081D02*
G01*
X4965616Y-14376402D01*
X5448300Y-14376402D01*
X7543800Y-12192002D02*
G01*
X6654873Y-12192002D01*
X5194294Y-13652581D01*
X5194294Y-13804981D01*
X4914894Y-14084381D01*
X4698994Y-14084381D01*
X4559294Y-14224081D01*
X5067300Y-13716078D02*
G01*
X5067300Y-13703378D01*
X6636765Y-12133912D01*
X7735061Y-12133912D01*
X7913877Y-11430078D02*
G01*
X8029702Y-11545902D01*
X8029702Y-11923092D01*
X7697215Y-12255578D01*
X6680200Y-12255578D01*
X5981700Y-12954078D01*
X5981700Y-13881178D01*
X5829300Y-14033578D01*
X5829300Y-14224078D01*
X6896094Y-929259D02*
G01*
X6783951Y-1041402D01*
X6781800Y-1041402D01*
X6642094Y-457200D02*
G01*
X6642094Y-1130300D01*
X6743697Y-1231902D01*
X6997700Y-1231902D01*
X7151801Y-11055299D02*
G01*
X7150100Y-11053597D01*
X7150100Y-10833100D01*
X7251700Y-10731500D01*
X7901028Y-10731500D01*
X3835400Y-10198102D02*
G01*
X2476497Y-10198102D01*
X2476494Y-10198100D01*
X8978900Y-11722102D02*
G01*
X8978900Y-11671294D01*
X9080494Y-11569700D01*
X9410694Y-11569700D01*
X9571987Y-11730992D01*
X9571987Y-13923088D01*
X8623368Y-14871700D01*
X4305294Y-14871700D01*
X1534159Y-3162376D02*
G01*
X1534921Y-3162378D01*
X1534921Y-3162378D02*
G01*
X1627123Y-3162378D01*
X2236723Y-2552778D01*
X2311400Y-2552778D01*
X2423159Y-2441018D01*
X2423159Y-2362786D01*
X2948939Y-1837006D01*
X2948939Y-1714070D01*
X3340100Y-1323672D01*
X3340100Y-457278D01*
X2044694Y-2552700D02*
G01*
X2169165Y-2435174D01*
X2169165Y-2325700D01*
X2412994Y-2081862D01*
X2412994Y-1638305D01*
X2743197Y-1308102D01*
X3086100Y-1308102D01*
X9232894Y-7874081D02*
G01*
X9232894Y-7543881D01*
X8610516Y-6921502D01*
X8382000Y-6921502D01*
X8978894Y-8128000D02*
G01*
X8851894Y-8128000D01*
X7899400Y-7175505D01*
X7899400Y-7150102D01*
X4635500Y-1155702D02*
G01*
X4861943Y-929259D01*
X4864094Y-929259D01*
X1788921Y-3162373D02*
G01*
X2348491Y-2602811D01*
X2505021Y-2602811D01*
X2677921Y-2429916D01*
X2677921Y-2368958D01*
X3187694Y-1859178D01*
X3187694Y-1557479D01*
X3403600Y-1341574D01*
X3403600Y-1155702D01*
D12*
X7404094Y-929208D02*
G01*
X7404839Y-954659D01*
X7470000Y-1016081D01*
X8216821Y-1016081D01*
X8216900Y-1016002D01*
X5194294Y-14732000D02*
G01*
X2628897Y-14732000D01*
X2222500Y-14325602D01*
X9029694Y-13817600D02*
G01*
X8864594Y-13817681D01*
X7950273Y-14732002D01*
X5194300Y-14732002D01*
X4800600Y-12344402D02*
G01*
X5676892Y-12344402D01*
X5841994Y-12179300D01*
X6591300Y-9639378D02*
G01*
X6338823Y-9386902D01*
X5627623Y-9386902D01*
X5448300Y-9207578D01*
X5448300Y-8153478D01*
X5067300Y-7772478D01*
X2463291Y-7772478D01*
X786892Y-6096078D01*
X607821Y-6096078D01*
X469900Y-5958156D01*
X469900Y-4368878D01*
X647700Y-4191078D01*
X7913801Y-11817299D02*
G01*
X7659801Y-11817299D01*
X4059427Y-12115370D02*
G01*
X5740907Y-12115370D01*
X6038850Y-11817174D01*
X6135877Y-11817174D01*
X4292600Y-12344402D02*
G01*
X4292600Y-12128060D01*
X4305294Y-12115365D01*
X3532301Y-11817299D02*
G01*
X3830370Y-12115368D01*
X4059402Y-12115368D01*
X3830373Y-12115365D02*
G01*
X3746500Y-12199239D01*
X3746500Y-13296902D01*
X660400Y-7366000D02*
G01*
X1168400Y-7366000D01*
X1168400Y-7366002D01*
X765251Y-2901899D02*
G01*
X647700Y-2901899D01*
X765301Y-2901774D02*
G01*
X1418081Y-2248994D01*
X1827784Y-2248994D01*
X2171700Y-1905078D01*
X2171700Y-1752678D01*
X2705100Y-1219278D01*
X3060700Y-1219278D01*
X3200400Y-1079578D01*
X1282700Y-1790700D02*
G01*
X1282700Y-2012899D01*
X647700Y-2647899D01*
D11*
X3594100Y-929210D02*
G01*
X3594100Y-1665556D01*
X2931921Y-2327734D01*
X2931921Y-2656156D01*
X2550921Y-3037156D01*
X2550921Y-3162378D01*
D12*
X647700Y-2647774D02*
G01*
X495300Y-2800174D01*
X495300Y-3111578D01*
X711200Y-3327478D01*
X2590800Y-3327478D01*
X2677921Y-3240356D01*
X2677921Y-3087956D01*
X3185921Y-2579956D01*
X3185921Y-2262456D01*
X3657600Y-1790778D01*
X3753104Y-1790778D01*
X3860800Y-1790700D02*
G01*
X3753230Y-1790700D01*
X1092200Y-4826000D02*
G01*
X6032500Y-4826000D01*
X6515100Y-4826002D02*
G01*
X8598077Y-4826002D01*
X9115295Y-5343220D01*
X9115295Y-5981781D01*
X6311900Y-1333578D02*
G01*
X7048500Y-1333578D01*
X7150100Y-1231978D01*
X7150100Y-457278D01*
X7404100Y-457200D02*
G01*
X7404100Y-929259D01*
X6261100Y-1054102D02*
G01*
X6136256Y-929259D01*
X6134094Y-929259D01*
X6134100Y-457200D02*
G01*
X6134100Y-929259D01*
D11*
X4635500Y-3175002D02*
G01*
X5272280Y-2538222D01*
X5272280Y-2322908D01*
X5765794Y-1829389D01*
X5765794Y-1714581D01*
X6388094Y-1092281D01*
X6388094Y-929208D01*
X2832100Y-929210D02*
G01*
X2643631Y-1117678D01*
X2108200Y-1117678D01*
X1919477Y-1306400D01*
X1919477Y-1385140D01*
X7242302Y-5721174D02*
G01*
X7242302Y-5934280D01*
X7424420Y-6116144D01*
X9166605Y-6116144D01*
X9336786Y-6286324D01*
X9336786Y-8278192D01*
X9232900Y-8382078D01*
D12*
X647700Y-3937000D02*
G01*
X1287398Y-3937000D01*
X1534998Y-3689400D01*
X4637201Y-3689400D02*
G01*
X4891201Y-3689400D01*
D11*
X5686297Y-10569526D02*
G01*
X5261102Y-10569526D01*
X3784600Y-9093278D01*
X3594100Y-9093278D01*
X3594094Y-9093281D02*
G01*
X2235194Y-9093281D01*
X2031916Y-8890002D01*
X1676400Y-8890002D01*
X5448294Y-11353800D02*
G01*
X1917700Y-11353800D01*
X1917700Y-11353802D01*
X8712200Y-8813800D02*
G01*
X9232900Y-8813800D01*
X9232900Y-10579102D02*
G01*
X8704331Y-11107671D01*
X8704331Y-12250750D01*
X7365994Y-13589081D01*
X7365994Y-13716081D01*
X9107170Y-10209608D02*
G01*
X9107170Y-10369628D01*
X9024620Y-10452178D01*
X8940800Y-10452178D01*
X8331200Y-11061778D01*
X8331200Y-12310442D01*
X7099300Y-13542342D01*
X7099300Y-13716078D01*
X7365994Y-14224081D02*
G01*
X7249413Y-14107238D01*
X7249413Y-13502462D01*
X8414252Y-12337366D01*
X8414252Y-11307142D01*
X9118594Y-10602800D01*
X9118594Y-10439407D01*
X9232900Y-10325102D01*
X4343394Y-8597900D02*
G01*
X4127500Y-8382005D01*
X4127500Y-8382002D01*
X6389806Y-11055299D02*
G01*
X6103261Y-10768761D01*
X5206486Y-10768761D01*
X4343725Y-9906002D01*
X1676400Y-9906002D01*
X3862781Y-7874000D02*
G01*
X4419600Y-7874000D01*
X3862829Y-7874081D02*
G01*
X3862750Y-7874002D01*
X1676400Y-7874002D01*
X4419600Y-7874078D02*
G01*
X4419600Y-8382000D01*
X5209793Y-9977960D02*
G01*
X4940300Y-9708466D01*
X4940300Y-8890078D01*
X4680204Y-8629982D01*
X4419600Y-8382078D01*
X6897880Y-11055177D02*
G01*
X6718802Y-11234247D01*
X5558279Y-11234247D01*
X4738110Y-10414081D01*
X1676400Y-10414081D01*
X1676400Y-10414002D01*
X4493361Y-13843000D02*
G01*
X4451908Y-13801547D01*
X4451908Y-13580110D01*
X4673320Y-13358698D01*
X3302000Y-10541002D02*
G01*
X4673594Y-10541002D01*
X4673594Y-10541000D01*
X3062406Y-5721299D02*
G01*
X3062406Y-5907204D01*
X3124207Y-5969000D01*
X3507315Y-5969000D01*
X3786718Y-6248402D01*
X5016500Y-6248402D01*
X3434588Y-14274881D02*
G01*
X3434588Y-14419912D01*
X3606794Y-14592381D01*
X7937494Y-14592381D01*
X9432287Y-13097334D01*
X9432287Y-12429490D01*
X9232900Y-12230102D01*
X3543294Y-14224081D02*
G01*
X3543294Y-14452681D01*
X3632194Y-14541581D01*
X7924545Y-14541581D01*
X9389623Y-13076504D01*
X9389623Y-12446843D01*
X9299953Y-12357181D01*
X9105978Y-12357181D01*
X8978900Y-12230102D01*
X3784594Y-14224081D02*
G01*
X3784594Y-14376481D01*
X3898894Y-14490781D01*
X7912094Y-14490781D01*
X9232900Y-13169976D01*
X9232900Y-12484102D01*
D15*
G01*
X7404100Y-457278D03*
G01*
X7150100Y-457278D03*
G01*
X6896100Y-457278D03*
G01*
X6642100Y-457278D03*
G01*
X6388100Y-457278D03*
G01*
X6134100Y-457278D03*
G01*
X5880100Y-457278D03*
G01*
X5626100Y-457278D03*
G01*
X5372100Y-457278D03*
G01*
X5118100Y-457278D03*
G01*
X4864100Y-457278D03*
G01*
X4610100Y-457278D03*
G01*
X4356100Y-457278D03*
G01*
X4102100Y-457278D03*
G01*
X3848100Y-457278D03*
G01*
X3594100Y-457278D03*
G01*
X3340100Y-457278D03*
G01*
X3086100Y-457278D03*
G01*
X2832100Y-457278D03*
G01*
X2578100Y-457278D03*
D16*
G01*
X9779000Y-3581400D03*
G01*
X9779000Y-3327400D03*
G01*
X9779000Y-3073400D03*
G01*
X9779000Y-2819400D03*
G01*
X9779000Y-2565400D03*
G01*
X9779000Y-2311400D03*
G01*
X9779000Y-2057400D03*
G01*
X9779000Y-1803400D03*
D17*
G01*
X241300Y-9131300D03*
G01*
X241300Y-8877300D03*
G01*
X241300Y-8623300D03*
G01*
X241300Y-8369300D03*
G01*
X241300Y-8115300D03*
G01*
X241300Y-7861300D03*
G01*
X241300Y-7607300D03*
G01*
X241300Y-7353300D03*
G36*
X1092200Y-7289800D02*
G01*
X1244600Y-7289800D01*
X1244600Y-7442200D01*
X1092200Y-7442200D01*
G37*
D19*
G01*
X1168400Y-7620000D03*
G01*
X1168400Y-7874000D03*
G01*
X1168400Y-8128000D03*
G01*
X1168400Y-8382000D03*
G01*
X1168400Y-8636000D03*
G01*
X1168400Y-8890000D03*
G01*
X1168400Y-9144000D03*
G01*
X1168400Y-9398000D03*
G01*
X1168400Y-9652000D03*
G01*
X1168400Y-9906000D03*
G01*
X1168400Y-10160000D03*
G01*
X1168400Y-10414000D03*
G01*
X1168400Y-10668000D03*
G01*
X1168400Y-10922000D03*
G01*
X1168400Y-11176000D03*
G01*
X1168400Y-11430000D03*
G01*
X1168400Y-11684000D03*
G01*
X1168400Y-11938000D03*
G01*
X1168400Y-12192000D03*
G01*
X1168400Y-12446000D03*
G36*
X584200Y-7289878D02*
G01*
X736600Y-7289878D01*
X736600Y-7442278D01*
X584200Y-7442278D01*
G37*
G01*
X660400Y-7620078D03*
G01*
X660400Y-7874078D03*
G01*
X660400Y-8128078D03*
G01*
X660400Y-8382078D03*
G01*
X660400Y-8636078D03*
G01*
X660400Y-8890078D03*
G01*
X660400Y-9144078D03*
G01*
X660400Y-9398078D03*
G01*
X660400Y-9652078D03*
G01*
X660400Y-9906078D03*
G01*
X660400Y-10160078D03*
G01*
X660400Y-10414078D03*
G01*
X660400Y-10668078D03*
G01*
X660400Y-10922078D03*
G01*
X660400Y-11176078D03*
G01*
X660400Y-11430078D03*
G01*
X660400Y-11684078D03*
G01*
X660400Y-11938078D03*
G01*
X660400Y-12192078D03*
G01*
X660400Y-12446078D03*
G36*
X1600200Y-7289800D02*
G01*
X1752600Y-7289800D01*
X1752600Y-7442200D01*
X1600200Y-7442200D01*
G37*
G01*
X1676400Y-7620000D03*
G01*
X1676400Y-7874000D03*
G01*
X1676400Y-8128000D03*
G01*
X1676400Y-8382000D03*
G01*
X1676400Y-8636000D03*
G01*
X1676400Y-8890000D03*
G01*
X1676400Y-9144000D03*
G01*
X1676400Y-9398000D03*
G01*
X1676400Y-9652000D03*
G01*
X1676400Y-9906000D03*
G01*
X1676400Y-10160000D03*
G01*
X1676400Y-10414000D03*
G01*
X1676400Y-10668000D03*
G01*
X1676400Y-10922000D03*
G01*
X1676400Y-11176000D03*
G01*
X1676400Y-11430000D03*
G01*
X1676400Y-11684000D03*
G01*
X1676400Y-11938000D03*
G01*
X1676400Y-12192000D03*
G01*
X1676400Y-12446000D03*
G01*
X2222500Y-14325600D03*
G01*
X1968500Y-14325600D03*
G01*
X1714500Y-14325600D03*
G01*
X1460500Y-14325600D03*
G01*
X1206500Y-14325600D03*
G01*
X952500Y-14325600D03*
G01*
X698500Y-14325600D03*
G01*
X444500Y-14325600D03*
G01*
X190500Y-14325600D03*
G01*
X4038600Y-10668078D03*
G01*
X4292600Y-10668078D03*
G01*
X4546600Y-10668078D03*
G01*
X4800600Y-10668078D03*
G01*
X6985000Y-3187700D03*
G01*
X6731000Y-3187700D03*
G01*
X7239000Y-3187700D03*
G01*
X7493000Y-3187700D03*
G01*
X8509000Y-2425700D03*
G01*
X8255000Y-2425700D03*
G01*
X7747000Y-3187700D03*
G01*
X8001000Y-3187700D03*
G01*
X8255000Y-3187700D03*
G01*
X8509000Y-3187700D03*
G01*
X8001000Y-2425700D03*
G01*
X7747000Y-2425700D03*
G01*
X7493000Y-2425700D03*
G01*
X7239000Y-2425700D03*
G01*
X6985000Y-2425700D03*
G01*
X6731000Y-2425700D03*
G01*
X1788921Y-3162378D03*
G01*
X1534921Y-3162378D03*
G01*
X2042921Y-3162378D03*
G01*
X2296921Y-3162378D03*
G01*
X3312921Y-2400378D03*
G01*
X3058921Y-2400378D03*
G01*
X2550921Y-3162378D03*
G01*
X2804921Y-3162378D03*
G01*
X3058921Y-3162378D03*
G01*
X3312921Y-3162378D03*
G01*
X2804921Y-2400378D03*
G01*
X2550921Y-2400378D03*
G01*
X2296921Y-2400378D03*
G01*
X2042921Y-2400378D03*
G01*
X1788921Y-2400378D03*
G01*
X1534921Y-2400378D03*
G01*
X4127500Y-3175000D03*
G01*
X3873500Y-3175000D03*
G01*
X4381500Y-3175000D03*
G01*
X4635500Y-3175000D03*
G01*
X5651500Y-2413000D03*
G01*
X5397500Y-2413000D03*
G01*
X4889500Y-3175000D03*
G01*
X5143500Y-3175000D03*
G01*
X5397500Y-3175000D03*
G01*
X5651500Y-3175000D03*
G01*
X5143500Y-2413000D03*
G01*
X4889500Y-2413000D03*
G01*
X4635500Y-2413000D03*
G01*
X4381500Y-2413000D03*
G01*
X4127500Y-2413000D03*
G01*
X3873500Y-2413000D03*
G01*
X4813300Y-9029702D03*
G01*
X4559300Y-9029702D03*
G01*
X5067300Y-9029702D03*
G01*
X5321300Y-9029702D03*
G01*
X6337300Y-8267702D03*
G01*
X6083300Y-8267702D03*
G01*
X5575300Y-9029702D03*
G01*
X5829300Y-9029702D03*
G01*
X6083300Y-9029702D03*
G01*
X6337300Y-9029702D03*
G01*
X5829300Y-8267702D03*
G01*
X5575300Y-8267702D03*
G01*
X5321300Y-8267702D03*
G01*
X5067300Y-8267702D03*
G01*
X4813300Y-8267702D03*
G01*
X4559300Y-8267702D03*
G01*
X9118612Y-2901901D03*
D20*
G01*
X9118612Y-2647901D03*
D19*
G01*
X647700Y-2647901D03*
D20*
G01*
X647700Y-2901901D03*
D19*
G01*
X6591300Y-9639302D03*
G01*
X6337300Y-9639302D03*
G01*
X6083300Y-9639302D03*
G01*
X5829300Y-9639302D03*
G01*
X5575300Y-9639302D03*
G01*
X5321300Y-9639302D03*
G01*
X5067300Y-9639302D03*
G01*
X4813300Y-9639302D03*
G01*
X4559300Y-9639302D03*
G36*
X6397000Y-1710700D02*
G01*
X6556999Y-1710700D01*
X6556999Y-1870699D01*
X6397000Y-1870699D01*
G37*
G01*
X6731000Y-1790702D03*
G01*
X6985000Y-1790702D03*
G01*
X7239000Y-1790702D03*
G01*
X7493000Y-1790702D03*
G01*
X7747000Y-1790702D03*
G01*
X8001000Y-1790702D03*
G01*
X8255000Y-1790702D03*
G01*
X8509000Y-1790702D03*
G36*
X1202700Y-1710700D02*
G01*
X1362699Y-1710700D01*
X1362699Y-1870699D01*
X1202700Y-1870699D01*
G37*
G01*
X1536700Y-1790702D03*
G01*
X1790700Y-1790702D03*
G01*
X2044700Y-1790702D03*
G01*
X2298700Y-1790702D03*
G01*
X2552700Y-1790702D03*
G01*
X2806700Y-1790702D03*
G01*
X3060700Y-1790702D03*
G01*
X3314700Y-1790702D03*
G36*
X3780800Y-1710700D02*
G01*
X3940799Y-1710700D01*
X3940799Y-1870699D01*
X3780800Y-1870699D01*
G37*
G01*
X4114800Y-1790702D03*
G01*
X4368800Y-1790702D03*
G01*
X4622800Y-1790702D03*
G01*
X4876800Y-1790702D03*
G01*
X5130800Y-1790702D03*
G01*
X5384800Y-1790702D03*
G01*
X5638800Y-1790702D03*
G01*
X5892800Y-1790702D03*
G01*
X7913801Y-11055301D03*
G01*
X7659801Y-11055301D03*
G01*
X6389801Y-11055301D03*
G01*
X6135801Y-11055301D03*
G01*
X7405801Y-11055301D03*
G01*
X7151801Y-11055301D03*
G01*
X6643801Y-11055301D03*
G01*
X6897801Y-11055301D03*
G01*
X6135801Y-11817301D03*
G01*
X6389801Y-11817301D03*
G01*
X6643801Y-11817301D03*
G01*
X6897801Y-11817301D03*
G01*
X7151801Y-11817301D03*
G01*
X7405801Y-11817301D03*
G01*
X7659801Y-11817301D03*
G01*
X7913801Y-11817301D03*
G01*
X4802301Y-11055301D03*
G01*
X4548301Y-11055301D03*
G01*
X3278301Y-11055301D03*
G01*
X3024301Y-11055301D03*
G01*
X4294301Y-11055301D03*
G01*
X4040301Y-11055301D03*
G01*
X3532301Y-11055301D03*
G01*
X3786301Y-11055301D03*
G01*
X3024301Y-11817301D03*
G01*
X3278301Y-11817301D03*
G01*
X3532301Y-11817301D03*
G01*
X3786301Y-11817301D03*
G01*
X4040301Y-11817301D03*
G01*
X4294301Y-11817301D03*
G01*
X4548301Y-11817301D03*
G01*
X4802301Y-11817301D03*
G01*
X1534998Y-4451403D03*
G01*
X1788998Y-4451403D03*
G01*
X3058998Y-4451403D03*
G01*
X3312998Y-4451403D03*
G01*
X2042998Y-4451403D03*
G01*
X2296998Y-4451403D03*
G01*
X2804998Y-4451403D03*
G01*
X2550998Y-4451403D03*
G01*
X3312998Y-3689403D03*
G01*
X3058998Y-3689403D03*
G01*
X2804998Y-3689403D03*
G01*
X2550998Y-3689403D03*
G01*
X2296998Y-3689403D03*
G01*
X2042998Y-3689403D03*
G01*
X1788998Y-3689403D03*
G01*
X1534998Y-3689403D03*
G01*
X3875201Y-4451403D03*
G01*
X4129201Y-4451403D03*
G01*
X5399201Y-4451403D03*
G01*
X5653201Y-4451403D03*
G01*
X4383201Y-4451403D03*
G01*
X4637201Y-4451403D03*
G01*
X5145201Y-4451403D03*
G01*
X4891201Y-4451403D03*
G01*
X5653201Y-3689403D03*
G01*
X5399201Y-3689403D03*
G01*
X5145201Y-3689403D03*
G01*
X4891201Y-3689403D03*
G01*
X4637201Y-3689403D03*
G01*
X4383201Y-3689403D03*
G01*
X4129201Y-3689403D03*
G01*
X3875201Y-3689403D03*
G01*
X3316401Y-5721301D03*
G01*
X3062401Y-5721301D03*
G01*
X1792401Y-5721301D03*
G01*
X1538401Y-5721301D03*
G01*
X2808401Y-5721301D03*
G01*
X2554401Y-5721301D03*
G01*
X2046401Y-5721301D03*
G01*
X2300401Y-5721301D03*
G01*
X1538401Y-6483301D03*
G01*
X1792401Y-6483301D03*
G01*
X2046401Y-6483301D03*
G01*
X2300401Y-6483301D03*
G01*
X2554401Y-6483301D03*
G01*
X2808401Y-6483301D03*
G01*
X3062401Y-6483301D03*
G01*
X3316401Y-6483301D03*
G01*
X5656605Y-5721301D03*
G01*
X5402605Y-5721301D03*
G01*
X4132605Y-5721301D03*
G01*
X3878605Y-5721301D03*
G01*
X5148605Y-5721301D03*
G01*
X4894605Y-5721301D03*
G01*
X4386605Y-5721301D03*
G01*
X4640605Y-5721301D03*
G01*
X3878605Y-6483301D03*
G01*
X4132605Y-6483301D03*
G01*
X4386605Y-6483301D03*
G01*
X4640605Y-6483301D03*
G01*
X4894605Y-6483301D03*
G01*
X5148605Y-6483301D03*
G01*
X5402605Y-6483301D03*
G01*
X5656605Y-6483301D03*
G01*
X8512403Y-5721301D03*
G01*
X8258403Y-5721301D03*
G01*
X6988403Y-5721301D03*
G01*
X6734403Y-5721301D03*
G01*
X8004403Y-5721301D03*
G01*
X7750403Y-5721301D03*
G01*
X7242403Y-5721301D03*
G01*
X7496403Y-5721301D03*
G01*
X6734403Y-6483301D03*
G01*
X6988403Y-6483301D03*
G01*
X7242403Y-6483301D03*
G01*
X7496403Y-6483301D03*
G01*
X7750403Y-6483301D03*
G01*
X8004403Y-6483301D03*
G01*
X8258403Y-6483301D03*
G01*
X8512403Y-6483301D03*
G01*
X660400Y-5969002D03*
D20*
G01*
X660400Y-6223002D03*
D19*
G01*
X647700Y-3937002D03*
G01*
X647700Y-4191002D03*
G01*
X9115196Y-6235702D03*
D20*
G01*
X9115196Y-5981702D03*
D19*
G01*
X4559300Y-7620002D03*
G01*
X4813300Y-7620002D03*
G01*
X5067300Y-7620002D03*
G01*
X5321300Y-7620002D03*
G01*
X5575300Y-7620002D03*
G01*
X5829300Y-7620002D03*
G01*
X6083300Y-7620002D03*
G01*
X6337300Y-7620002D03*
G01*
X8978900Y-9817102D03*
G01*
X9232900Y-9817102D03*
G01*
X9232900Y-10071102D03*
G01*
X8978900Y-10071102D03*
G01*
X9232900Y-10325102D03*
G01*
X8978900Y-10325102D03*
G01*
X9232900Y-10579102D03*
G01*
X8978900Y-10579102D03*
D16*
G01*
X1533296Y-5079926D03*
G01*
X1787296Y-5079926D03*
G01*
X2041296Y-5079926D03*
G01*
X2295296Y-5079926D03*
G01*
X2549296Y-5079926D03*
G01*
X2803296Y-5079926D03*
G01*
X3057296Y-5079926D03*
G01*
X3311296Y-5079926D03*
G01*
X3871798Y-5079926D03*
G01*
X4125798Y-5079926D03*
G01*
X4379798Y-5079926D03*
G01*
X4633798Y-5079926D03*
G01*
X4887798Y-5079926D03*
G01*
X5141798Y-5079926D03*
G01*
X5395798Y-5079926D03*
G01*
X5649798Y-5079926D03*
D19*
G01*
X8978900Y-11722102D03*
G01*
X9232900Y-11722102D03*
G01*
X9232900Y-11976102D03*
G01*
X8978900Y-11976102D03*
G01*
X9232900Y-12230102D03*
G01*
X8978900Y-12230102D03*
G01*
X9232900Y-12484102D03*
G01*
X8978900Y-12484102D03*
D21*
G01*
X3035300Y-14224002D03*
G01*
X3035300Y-13716002D03*
G01*
X3289300Y-14224002D03*
G01*
X3302000Y-13716002D03*
G01*
X3543300Y-14224002D03*
G01*
X3543300Y-13716002D03*
G01*
X3784600Y-14224002D03*
D22*
G01*
X3797300Y-13716002D03*
D21*
G01*
X4051300Y-14224002D03*
G01*
X4051300Y-13716002D03*
G01*
X4305300Y-14224002D03*
G01*
X4305300Y-13716002D03*
G01*
X4559300Y-14224002D03*
G01*
X4559300Y-13716002D03*
G01*
X4813300Y-14224002D03*
G01*
X4813300Y-13716002D03*
G01*
X5067300Y-14224002D03*
G01*
X5067300Y-13716002D03*
G01*
X5321300Y-14224002D03*
G01*
X5321300Y-13716002D03*
G01*
X5575300Y-14224002D03*
G01*
X5575300Y-13716002D03*
G01*
X5829300Y-14224002D03*
G01*
X5829300Y-13716002D03*
G01*
X6070600Y-14224002D03*
G01*
X6096000Y-13716002D03*
G01*
X6337300Y-14224002D03*
G01*
X6337300Y-13716002D03*
D22*
G01*
X6591300Y-14224002D03*
D21*
G01*
X6591300Y-13716002D03*
G01*
X6845300Y-14224002D03*
G01*
X6845300Y-13716002D03*
G01*
X7099300Y-14224002D03*
G01*
X7099300Y-13716002D03*
G01*
X7366000Y-14224002D03*
G01*
X7366000Y-13716002D03*
D22*
G01*
X7607300Y-14224002D03*
D21*
G01*
X7607300Y-13716002D03*
G01*
X7861300Y-14224002D03*
G01*
X7861300Y-13716002D03*
D19*
G01*
X9283700Y-13817602D03*
D23*
G01*
X9029700Y-13817602D03*
D19*
G01*
X8978900Y-7874002D03*
G01*
X9232900Y-7874002D03*
G01*
X9232900Y-8128002D03*
G01*
X8978900Y-8128002D03*
G01*
X9232900Y-8382002D03*
G01*
X8978900Y-8382002D03*
G01*
X9232900Y-8636002D03*
G01*
X8978900Y-8636002D03*
D24*
G01*
X4292600Y-12344402D03*
D25*
G01*
X4546600Y-12344402D03*
G01*
X4800600Y-12344402D03*
D16*
G01*
X6731000Y-5080002D03*
G01*
X6985000Y-5080002D03*
G01*
X7239000Y-5080002D03*
G01*
X7493000Y-5080002D03*
G01*
X7747000Y-5080002D03*
G01*
X8001000Y-5080002D03*
G01*
X8255000Y-5080002D03*
G01*
X8509000Y-5080002D03*
D13*
G01*
X6625081Y-6929909D03*
G01*
X5270500Y-3467102D03*
G01*
X8842146Y-8572502D03*
G01*
X4764227Y-3799080D03*
G01*
X7735188Y-12133811D03*
G01*
X6870700Y-6769100D03*
G01*
X6299200Y-2603500D03*
G01*
X7594600Y-2781300D03*
G01*
X7645400Y-12661902D03*
G01*
X7899400Y-7150100D03*
G01*
X7382230Y-8908087D03*
G01*
X6210325Y-9189036D03*
G01*
X5816600Y-3175000D03*
G01*
X6451244Y-2863547D03*
G01*
X7874000Y-2870200D03*
G01*
X2165070Y-11876686D03*
G01*
X4051300Y-13373102D03*
G01*
X3403600Y-1155702D03*
G01*
X4165600Y-13906502D03*
G01*
X4241800Y-6121402D03*
G01*
X3429000Y-14274802D03*
G01*
X1333500Y-6146802D03*
G01*
X3086100Y-1308102D03*
G01*
X2755900Y-1130302D03*
G01*
X3768979Y-6317211D03*
G01*
X4851400Y-13906502D03*
G01*
X5092700Y-13500102D03*
G01*
X5016500Y-6248402D03*
G01*
X5041900Y-14808202D03*
G01*
X4493361Y-13843002D03*
G01*
X4673320Y-13358700D03*
G01*
X3670300Y-990602D03*
G01*
X4305300Y-14871702D03*
G01*
X7607300Y-5295902D03*
G01*
X8416188Y-5984471D03*
G01*
X6934200Y-1473200D03*
G01*
X6781800Y-1041402D03*
G01*
X7617205Y-7988099D03*
G01*
X4762500Y-6680202D03*
G01*
X5529605Y-6617210D03*
G01*
X6565900Y-2667000D03*
G01*
X7353300Y-2540000D03*
G01*
X6108700Y-1244602D03*
G01*
X6121400Y-2819402D03*
G01*
X6980859Y-7468364D03*
G01*
X8700490Y-9713495D03*
G01*
X8444280Y-9969705D03*
G01*
X5956300Y-10642602D03*
G01*
X5003800Y-2044700D03*
G01*
X5714238Y-9302498D03*
D14*
G01*
X6261100Y-1054102D03*
G01*
X6311900Y-1333502D03*
G01*
X3200400Y-1079502D03*
D13*
G01*
X3759200Y-2959102D03*
G01*
X3507409Y-13589307D03*
G01*
X3653764Y-1377596D03*
G01*
X7543800Y-12192002D03*
G01*
X1917700Y-11353802D03*
G01*
X1397000Y-3429002D03*
G01*
X5448300Y-11353802D03*
G01*
X1397000Y-1270002D03*
G01*
X1919401Y-1385064D03*
G01*
X3022600Y-11595102D03*
G01*
X3530600Y-11518902D03*
D14*
G01*
X8216900Y-1016002D03*
D13*
G01*
X3594100Y-9093202D03*
G01*
X4470400Y-1219200D03*
G01*
X5686425Y-10569653D03*
G01*
X4419600Y-7874002D03*
G01*
X4635500Y-1155702D03*
G01*
X5209793Y-9977884D03*
G01*
X4127500Y-8382002D03*
G01*
X5016500Y-13373102D03*
G01*
X4356100Y-1041400D03*
G01*
X4140200Y-1308100D03*
G01*
X3403600Y-8636002D03*
G01*
X3484397Y-7996887D03*
G01*
X4419600Y-9817102D03*
D14*
G01*
X5194300Y-14732002D03*
G01*
X5842000Y-12179302D03*
D13*
G01*
X2590800Y-12166602D03*
G01*
X3632200Y-13157202D03*
D14*
G01*
X3746500Y-13296902D03*
D13*
G01*
X3835400Y-13157202D03*
G01*
X5448300Y-14376402D03*
G01*
X4559300Y-14808202D03*
G01*
X1422400Y-14808202D03*
G01*
X6997700Y-1231902D03*
G01*
X7239000Y-1231902D03*
G01*
X3835400Y-10198102D03*
G01*
X2476500Y-10198102D03*
G01*
X2476500Y-11430002D03*
G01*
X2044700Y-2552702D03*
G01*
X2387600Y-10109202D03*
G01*
X7366000Y-5232402D03*
G01*
X8382000Y-6921500D03*
G01*
X1092200Y-4826002D03*
D14*
G01*
X6032500Y-4826002D03*
G01*
X6515100Y-4826000D03*
D13*
G01*
X7493000Y-5448302D03*
G01*
X7901025Y-10731502D03*
G01*
X8712200Y-8813802D03*
G01*
X9232900Y-8813802D03*
G01*
X9461500Y-8813800D03*
G01*
X4343400Y-8597902D03*
G01*
X3302000Y-10541002D03*
G01*
X4673600Y-10541002D03*
G01*
X2070100Y-11264900D03*
G01*
X2070100Y-11633200D03*
G01*
X1485900Y-12065000D03*
G01*
X8572500Y-14732002D03*
G01*
X6731000Y-4747676D03*
G01*
X6413500Y-5385600D03*
G01*
X6413500Y-5122075D03*
G01*
X7696200Y-6769100D03*
G01*
X6007100Y-2895600D03*
G01*
X5831718Y-6919424D03*
G01*
X6197600Y-3302000D03*
G01*
X7747000Y-3581400D03*
M02*
